<svg width="16" height="16" viewBox="0 0 16 16" fill="none" xmlns="http://www.w3.org/2000/svg">
<path fill-rule="evenodd" clip-rule="evenodd" d="M10.878 15.4621C14.9992 13.8726 17.0515 9.24322 15.4621 5.12203C13.8726 1.00084 9.24321 -1.05154 5.12201 0.537927C1.00082 2.12739 -1.05155 6.75679 0.537913 10.878C2.12738 14.9992 6.75678 17.0515 10.878 15.4621ZM7.46928 4.42663C6.98525 4.0062 6.22808 4.29823 6.15171 4.93479L5.84373 7.50194C5.82469 7.66071 5.75845 7.81011 5.65359 7.93083L3.95808 9.88283C3.53765 10.3669 3.82967 11.124 4.46624 11.2004L7.03339 11.5084C7.19215 11.5274 7.34155 11.5937 7.46227 11.6985L9.41427 13.394C9.8983 13.8145 10.6555 13.5224 10.7318 12.8859L11.0398 10.3187C11.0589 10.16 11.1251 10.0106 11.23 9.88984L12.9255 7.93784C13.3459 7.45381 13.0539 6.69663 12.4173 6.62027L9.85017 6.31229C9.69141 6.29324 9.54201 6.22701 9.42129 6.12215L7.46928 4.42663Z" fill="white" fill-opacity="0.2"/>
</svg>
