<svg width="26" height="26" viewBox="0 0 26 26" fill="none" xmlns="http://www.w3.org/2000/svg">
<path d="M11.9764 0.624914C12.4045 -0.208299 13.5955 -0.2083 14.0236 0.624913L17.7075 7.79477C17.8174 8.00858 17.9914 8.18262 18.2052 8.29247L25.3751 11.9764C26.2083 12.4045 26.2083 13.5955 25.3751 14.0236L18.2052 17.7075C17.9914 17.8174 17.8174 17.9914 17.7075 18.2052L14.0237 25.3751C13.5955 26.2083 12.4045 26.2083 11.9764 25.3751L8.29247 18.2052C8.18262 17.9914 8.00857 17.8174 7.79477 17.7075L0.624914 14.0237C-0.208299 13.5955 -0.208301 12.4045 0.624913 11.9764L7.79477 8.29247C8.00858 8.18262 8.18262 8.00858 8.29247 7.79477L11.9764 0.624914Z" fill="white"/>
</svg>
